<?xml version="1.0" encoding="UTF-8" standalone="no"?>
<!-- Created with Inkscape (http://www.inkscape.org/) -->

<svg
   xmlns:dc="http://purl.org/dc/elements/1.1/"
   xmlns:cc="http://creativecommons.org/ns#"
   xmlns:rdf="http://www.w3.org/1999/02/22-rdf-syntax-ns#"
   xmlns:svg="http://www.w3.org/2000/svg"
   xmlns="http://www.w3.org/2000/svg"
   xmlns:sodipodi="http://sodipodi.sourceforge.net/DTD/sodipodi-0.dtd"
   xmlns:inkscape="http://www.inkscape.org/namespaces/inkscape"
   id="svg3425"
   version="1.1"
   inkscape:version="0.91 r13725"
   xml:space="preserve"
   width="298.41876"
   height="296.76251"
   viewBox="0 0 298.41875 296.76251"
   sodipodi:docname="Melonport.svg"><metadata
     id="metadata3431"><rdf:RDF><cc:Work
         rdf:about=""><dc:format>image/svg+xml</dc:format><dc:type
           rdf:resource="http://purl.org/dc/dcmitype/StillImage" /><dc:title></dc:title></cc:Work></rdf:RDF></metadata><defs
     id="defs3429"><linearGradient
       x1="0"
       y1="0"
       x2="1"
       y2="0"
       gradientUnits="userSpaceOnUse"
       gradientTransform="matrix(1025.44,1776.11,1776.11,-1025.44,1882.29,1516.03)"
       spreadMethod="pad"
       id="linearGradient3459"><stop
         style="stop-opacity:1;stop-color:#c2193c"
         offset="0"
         id="stop3461" /><stop
         style="stop-opacity:1;stop-color:#ee2036"
         offset="1"
         id="stop3463" /></linearGradient></defs><sodipodi:namedview
     pagecolor="#ffffff"
     bordercolor="#666666"
     borderopacity="1"
     objecttolerance="10"
     gridtolerance="10"
     guidetolerance="10"
     inkscape:pageopacity="0"
     inkscape:pageshadow="2"
     inkscape:window-width="1855"
     inkscape:window-height="1056"
     id="namedview3427"
     showgrid="false"
     inkscape:zoom="1.4449121"
     inkscape:cx="-57.778468"
     inkscape:cy="141.60398"
     inkscape:window-x="65"
     inkscape:window-y="24"
     inkscape:window-maximized="1"
     inkscape:current-layer="g3435"
     fit-margin-top="0"
     fit-margin-left="0"
     fit-margin-right="0"
     fit-margin-bottom="0" /><g
     id="g3433"
     inkscape:groupmode="layer"
     inkscape:label="ink_ext_XXXXXX"
     transform="matrix(1.25,0,0,-1.25,-148.52189,373.25001)"><g
       id="g3435"
       transform="scale(0.1,0.1)"><g
         id="g3571"
         transform="translate(-7.8149023,-611.93995)"><path
           inkscape:connector-curvature="0"
           id="path3455"
           style="fill:#398b38;fill-opacity:1;fill-rule:evenodd;stroke:none"
           d="m 2389.66,3597.94 c -659.24,0 -1193.67,-531.46 -1193.67,-1187.05 0,-655.59 534.43,-1187.05 1193.67,-1187.05 659.25,0 1193.68,531.46 1193.68,1187.05 0,655.59 -534.43,1187.05 -1193.68,1187.05" /><path
           inkscape:connector-curvature="0"
           id="path3457"
           style="fill:#ffffff;fill-opacity:1;fill-rule:evenodd;stroke:none"
           d="m 2395,3480.62 c -594.55,0 -1076.53,-481.99 -1076.53,-1076.54 0,-594.55 481.98,-1076.52 1076.53,-1076.52 594.56,0 1076.53,481.97 1076.53,1076.52 0,594.55 -481.97,1076.54 -1076.53,1076.54" /><path
           inkscape:connector-curvature="0"
           id="path3465"
           style="fill:url(#linearGradient3459);fill-opacity:1;fill-rule:evenodd;stroke:none"
           d="m 2395,3429.35 c -566.24,0 -1025.27,-459.03 -1025.27,-1025.27 0,-566.24 459.03,-1025.26 1025.27,-1025.26 566.24,0 1025.27,459.02 1025.27,1025.26 0,566.24 -459.03,1025.27 -1025.27,1025.27" /><path
           inkscape:connector-curvature="0"
           id="path3467"
           style="fill:#ffffff;fill-opacity:1;fill-rule:evenodd;stroke:none"
           d="m 1329.8,2494.3 c -49.93,0 -90.41,-40.48 -90.41,-90.41 0,-49.93 40.48,-90.41 90.41,-90.41 49.93,0 90.41,40.48 90.41,90.41 0,49.93 -40.48,90.41 -90.41,90.41" /><path
           inkscape:connector-curvature="0"
           id="path3469"
           style="fill:#ffffff;fill-opacity:1;fill-rule:evenodd;stroke:none"
           d="m 3447.92,2504.3 c -49.93,0 -90.41,-40.48 -90.41,-90.41 0,-49.93 40.48,-90.41 90.41,-90.41 49.93,0 90.41,40.48 90.41,90.41 0,49.93 -40.48,90.41 -90.41,90.41" /><path
           inkscape:connector-curvature="0"
           id="path3471"
           style="fill:#ffffff;fill-opacity:1;fill-rule:evenodd;stroke:none"
           d="m 2417.6,1448.15 c -49.92,0 -90.4,-40.47 -90.4,-90.41 0,-49.93 40.48,-90.41 90.4,-90.41 49.93,0 90.41,40.48 90.41,90.41 0,49.94 -40.48,90.41 -90.41,90.41" /><path
           inkscape:connector-curvature="0"
           id="path3473"
           style="fill:#ffffff;fill-opacity:1;fill-rule:evenodd;stroke:none"
           d="m 2866.73,3424.2 c -49.93,0 -90.41,-40.48 -90.41,-90.41 0,-49.93 40.48,-90.4 90.41,-90.4 49.93,0 90.4,40.47 90.4,90.4 0,49.93 -40.47,90.41 -90.4,90.41" /><path
           inkscape:connector-curvature="0"
           id="path3475"
           style="fill:#ffffff;fill-opacity:1;fill-rule:evenodd;stroke:none"
           d="m 1756.01,3305.05 c -49.93,0 -90.41,-40.48 -90.41,-90.41 0,-49.93 40.48,-90.41 90.41,-90.41 49.93,0 90.41,40.48 90.41,90.41 0,49.93 -40.48,90.41 -90.41,90.41" /><path
           inkscape:connector-curvature="0"
           id="path3477"
           style="fill:#131210;fill-opacity:1;fill-rule:nonzero;stroke:none"
           d="m 2461.48,2251.96 c -0.02,-27.68 -22.44,-50.11 -50.12,-50.11 -27.66,0 -50.1,22.43 -50.11,50.11 0.01,27.67 50.12,107.56 50.12,107.56 0,0 50.1,-79.89 50.11,-107.56" /><path
           inkscape:connector-curvature="0"
           id="path3479"
           style="fill:#131210;fill-opacity:1;fill-rule:nonzero;stroke:none"
           d="m 2461.48,1894.46 c -0.02,-27.68 -22.44,-50.11 -50.12,-50.11 -27.66,0 -50.1,22.43 -50.11,50.11 0.01,27.67 50.12,107.56 50.12,107.56 0,0 50.1,-79.89 50.11,-107.56" /><path
           inkscape:connector-curvature="0"
           id="path3481"
           style="fill:#131210;fill-opacity:1;fill-rule:nonzero;stroke:none"
           d="m 2461.48,1634.46 c -0.02,-27.68 -22.44,-50.11 -50.12,-50.11 -27.66,0 -50.1,22.43 -50.11,50.11 0.01,27.67 50.12,107.56 50.12,107.56 0,0 50.1,-79.89 50.11,-107.56" /><path
           inkscape:connector-curvature="0"
           id="path3483"
           style="fill:#131210;fill-opacity:1;fill-rule:nonzero;stroke:none"
           d="m 2077.91,1743.25 c -13.86,-23.96 -44.5,-32.18 -68.47,-18.34 -23.96,13.84 -32.16,44.48 -18.34,68.45 13.85,23.96 97.19,68.1 97.19,68.1 0,0 3.45,-94.24 -10.38,-118.21" /><path
           inkscape:connector-curvature="0"
           id="path3485"
           style="fill:#131210;fill-opacity:1;fill-rule:nonzero;stroke:none"
           d="m 2240.41,2020.75 c -13.86,-23.96 -44.5,-32.18 -68.47,-18.34 -23.96,13.84 -32.16,44.48 -18.34,68.45 13.85,23.96 97.19,68.1 97.19,68.1 0,0 3.45,-94.24 -10.38,-118.21" /><path
           inkscape:connector-curvature="0"
           id="path3487"
           style="fill:#131210;fill-opacity:1;fill-rule:nonzero;stroke:none"
           d="m 2745.15,1743.25 c 13.85,-23.96 44.49,-32.18 68.47,-18.34 23.95,13.84 32.16,44.48 18.33,68.45 -13.85,23.96 -97.18,68.1 -97.18,68.1 0,0 -3.45,-94.24 10.38,-118.21" /><path
           inkscape:connector-curvature="0"
           id="path3489"
           style="fill:#131210;fill-opacity:1;fill-rule:nonzero;stroke:none"
           d="m 2582.65,2020.75 c 13.85,-23.96 44.49,-32.18 68.47,-18.34 23.95,13.84 32.16,44.48 18.33,68.45 -13.85,23.96 -97.18,68.1 -97.18,68.1 0,0 -3.45,-94.24 10.38,-118.21" /><path
           inkscape:connector-curvature="0"
           id="path3491"
           style="fill:#131210;fill-opacity:1;fill-rule:nonzero;stroke:none"
           d="m 2461.48,2575.23 c -0.02,27.69 -22.44,50.12 -50.12,50.12 -27.66,0 -50.1,-22.43 -50.11,-50.11 0.01,-27.68 50.12,-107.56 50.12,-107.56 0,0 50.1,79.88 50.11,107.55" /><path
           inkscape:connector-curvature="0"
           id="path3493"
           style="fill:#131210;fill-opacity:1;fill-rule:nonzero;stroke:none"
           d="m 2461.48,2932.73 c -0.02,27.69 -22.44,50.12 -50.12,50.12 -27.66,0 -50.1,-22.43 -50.11,-50.11 0.01,-27.68 50.12,-107.56 50.12,-107.56 0,0 50.1,79.88 50.11,107.55" /><path
           inkscape:connector-curvature="0"
           id="path3495"
           style="fill:#131210;fill-opacity:1;fill-rule:nonzero;stroke:none"
           d="m 2461.48,3192.73 c -0.02,27.69 -22.44,50.12 -50.12,50.12 -27.66,0 -50.1,-22.43 -50.11,-50.11 0.01,-27.68 50.12,-107.56 50.12,-107.56 0,0 50.1,79.88 50.11,107.55" /><path
           inkscape:connector-curvature="0"
           id="path3497"
           style="fill:#131210;fill-opacity:1;fill-rule:nonzero;stroke:none"
           d="m 2077.91,3083.95 c -13.86,23.96 -44.5,32.18 -68.47,18.34 -23.96,-13.84 -32.16,-44.48 -18.34,-68.45 13.85,-23.96 97.19,-68.1 97.19,-68.1 0,0 3.45,94.24 -10.38,118.21" /><path
           inkscape:connector-curvature="0"
           id="path3499"
           style="fill:#131210;fill-opacity:1;fill-rule:nonzero;stroke:none"
           d="m 2240.41,2806.45 c -13.86,23.96 -44.5,32.18 -68.47,18.34 -23.96,-13.84 -32.16,-44.48 -18.34,-68.45 13.85,-23.96 97.19,-68.1 97.19,-68.1 0,0 3.45,94.24 -10.38,118.21" /><path
           inkscape:connector-curvature="0"
           id="path3501"
           style="fill:#131210;fill-opacity:1;fill-rule:nonzero;stroke:none"
           d="m 2745.15,3083.95 c 13.85,23.96 44.49,32.18 68.47,18.34 23.95,-13.84 32.16,-44.48 18.33,-68.45 -13.85,-23.96 -97.18,-68.1 -97.18,-68.1 0,0 -3.45,94.24 10.38,118.21" /><path
           inkscape:connector-curvature="0"
           id="path3503"
           style="fill:#131210;fill-opacity:1;fill-rule:nonzero;stroke:none"
           d="m 2582.65,2806.45 c 13.85,23.96 44.49,32.18 68.47,18.34 23.95,-13.84 32.16,-44.48 18.33,-68.45 -13.85,-23.96 -97.18,-68.1 -97.18,-68.1 0,0 -3.45,94.24 10.38,118.21" /><path
           inkscape:connector-curvature="0"
           id="path3505"
           style="fill:#131210;fill-opacity:1;fill-rule:nonzero;stroke:none"
           d="m 2249.89,2363.64 c -27.68,0.02 -50.11,22.45 -50.11,50.13 0,27.66 22.43,50.09 50.11,50.11 27.67,-0.02 107.56,-50.12 107.56,-50.12 0,0 -79.89,-50.11 -107.56,-50.12" /><path
           inkscape:connector-curvature="0"
           id="path3507"
           style="fill:#131210;fill-opacity:1;fill-rule:nonzero;stroke:none"
           d="m 1892.39,2363.64 c -27.68,0.02 -50.11,22.45 -50.11,50.13 0,27.66 22.43,50.09 50.11,50.11 27.67,-0.02 107.56,-50.12 107.56,-50.12 0,0 -79.89,-50.11 -107.56,-50.12" /><path
           inkscape:connector-curvature="0"
           id="path3509"
           style="fill:#131210;fill-opacity:1;fill-rule:nonzero;stroke:none"
           d="m 1632.39,2363.64 c -27.68,0.02 -50.11,22.45 -50.11,50.13 0,27.66 22.43,50.09 50.11,50.11 27.67,-0.02 107.56,-50.12 107.56,-50.12 0,0 -79.89,-50.11 -107.56,-50.12" /><path
           inkscape:connector-curvature="0"
           id="path3511"
           style="fill:#131210;fill-opacity:1;fill-rule:nonzero;stroke:none"
           d="m 1741.18,2747.22 c -23.96,13.85 -32.18,44.49 -18.34,68.47 13.83,23.95 44.48,32.16 68.45,18.33 23.96,-13.84 68.09,-97.18 68.09,-97.18 0,0 -94.23,-3.45 -118.2,10.38" /><path
           inkscape:connector-curvature="0"
           id="path3513"
           style="fill:#131210;fill-opacity:1;fill-rule:nonzero;stroke:none"
           d="m 2018.68,2584.72 c -23.96,13.85 -32.18,44.49 -18.34,68.47 13.83,23.95 44.48,32.16 68.45,18.33 23.96,-13.84 68.09,-97.18 68.09,-97.18 0,0 -94.23,-3.45 -118.2,10.38" /><path
           inkscape:connector-curvature="0"
           id="path3515"
           style="fill:#131210;fill-opacity:1;fill-rule:nonzero;stroke:none"
           d="m 1741.18,2079.98 c -23.96,-13.85 -32.18,-44.5 -18.34,-68.47 13.83,-23.96 44.48,-32.16 68.45,-18.33 23.96,13.85 68.09,97.18 68.09,97.18 0,0 -94.23,3.44 -118.2,-10.38" /><path
           inkscape:connector-curvature="0"
           id="path3517"
           style="fill:#131210;fill-opacity:1;fill-rule:nonzero;stroke:none"
           d="m 2018.68,2242.48 c -23.96,-13.85 -32.18,-44.5 -18.34,-68.47 13.83,-23.96 44.48,-32.16 68.45,-18.33 23.96,13.85 68.09,97.18 68.09,97.18 0,0 -94.23,3.45 -118.2,-10.38" /><path
           inkscape:connector-curvature="0"
           id="path3519"
           style="fill:#131210;fill-opacity:1;fill-rule:nonzero;stroke:none"
           d="m 2573.16,2363.64 c 27.68,0.02 50.12,22.45 50.12,50.13 0,27.66 -22.44,50.09 -50.11,50.11 -27.68,-0.02 -107.56,-50.12 -107.56,-50.12 0,0 79.88,-50.11 107.55,-50.12" /><path
           inkscape:connector-curvature="0"
           id="path3521"
           style="fill:#131210;fill-opacity:1;fill-rule:nonzero;stroke:none"
           d="m 2930.66,2363.64 c 27.68,0.02 50.12,22.45 50.12,50.13 0,27.66 -22.44,50.09 -50.11,50.11 -27.68,-0.02 -107.56,-50.12 -107.56,-50.12 0,0 79.88,-50.11 107.55,-50.12" /><path
           inkscape:connector-curvature="0"
           id="path3523"
           style="fill:#131210;fill-opacity:1;fill-rule:nonzero;stroke:none"
           d="m 3190.66,2363.64 c 27.68,0.02 50.12,22.45 50.12,50.13 0,27.66 -22.44,50.09 -50.11,50.11 -27.68,-0.02 -107.56,-50.12 -107.56,-50.12 0,0 79.88,-50.11 107.55,-50.12" /><path
           inkscape:connector-curvature="0"
           id="path3525"
           style="fill:#131210;fill-opacity:1;fill-rule:nonzero;stroke:none"
           d="m 3081.87,2747.22 c 23.96,13.85 32.19,44.49 18.34,68.47 -13.83,23.95 -44.47,32.16 -68.45,18.33 -23.95,-13.84 -68.09,-97.18 -68.09,-97.18 0,0 94.24,-3.45 118.2,10.38" /><path
           inkscape:connector-curvature="0"
           id="path3527"
           style="fill:#131210;fill-opacity:1;fill-rule:nonzero;stroke:none"
           d="m 2804.37,2584.72 c 23.96,13.85 32.19,44.49 18.34,68.47 -13.83,23.95 -44.47,32.16 -68.45,18.33 -23.95,-13.84 -68.09,-97.18 -68.09,-97.18 0,0 94.24,-3.45 118.2,10.38" /><path
           inkscape:connector-curvature="0"
           id="path3529"
           style="fill:#131210;fill-opacity:1;fill-rule:nonzero;stroke:none"
           d="m 3081.87,2079.98 c 23.96,-13.85 32.19,-44.5 18.34,-68.47 -13.83,-23.96 -44.47,-32.16 -68.45,-18.33 -23.95,13.85 -68.09,97.18 -68.09,97.18 0,0 94.24,3.44 118.2,-10.38" /><path
           inkscape:connector-curvature="0"
           id="path3531"
           style="fill:#131210;fill-opacity:1;fill-rule:nonzero;stroke:none"
           d="m 2804.37,2242.48 c 23.96,-13.85 32.19,-44.5 18.34,-68.47 -13.83,-23.96 -44.47,-32.16 -68.45,-18.33 -23.95,13.85 -68.09,97.18 -68.09,97.18 0,0 94.24,3.45 118.2,-10.38" /></g></g></g></svg>