<?xml version="1.0" encoding="UTF-8" standalone="no"?>
<!-- Created with Inkscape (http://www.inkscape.org/) -->

<svg
   xmlns:dc="http://purl.org/dc/elements/1.1/"
   xmlns:cc="http://creativecommons.org/ns#"
   xmlns:rdf="http://www.w3.org/1999/02/22-rdf-syntax-ns#"
   xmlns:svg="http://www.w3.org/2000/svg"
   xmlns="http://www.w3.org/2000/svg"
   xmlns:sodipodi="http://sodipodi.sourceforge.net/DTD/sodipodi-0.dtd"
   xmlns:inkscape="http://www.inkscape.org/namespaces/inkscape"
   id="svg3425"
   version="1.1"
   inkscape:version="0.91 r13725"
   xml:space="preserve"
   width="298.41876"
   height="296.76251"
   viewBox="0 0 298.41875 296.76251"
   sodipodi:docname="melonportfaviconclean.svg"><metadata
     id="metadata3431"><rdf:RDF><cc:Work
         rdf:about=""><dc:format>image/svg+xml</dc:format><dc:type
           rdf:resource="http://purl.org/dc/dcmitype/StillImage" /><dc:title></dc:title></cc:Work></rdf:RDF></metadata><defs
     id="defs3429"><linearGradient
       x1="0"
       y1="0"
       x2="1"
       y2="0"
       gradientUnits="userSpaceOnUse"
       gradientTransform="matrix(1025.44,1776.11,1776.11,-1025.44,1882.29,1516.03)"
       spreadMethod="pad"
       id="linearGradient3459"><stop
         style="stop-opacity:1;stop-color:#c2193c"
         offset="0"
         id="stop3461" /><stop
         style="stop-opacity:1;stop-color:#ee2036"
         offset="1"
         id="stop3463" /></linearGradient></defs><sodipodi:namedview
     pagecolor="#ffffff"
     bordercolor="#666666"
     borderopacity="1"
     objecttolerance="10"
     gridtolerance="10"
     guidetolerance="10"
     inkscape:pageopacity="0"
     inkscape:pageshadow="2"
     inkscape:window-width="1855"
     inkscape:window-height="1056"
     id="namedview3427"
     showgrid="false"
     inkscape:zoom="1.4449121"
     inkscape:cx="71.295128"
     inkscape:cy="144.37231"
     inkscape:window-x="65"
     inkscape:window-y="24"
     inkscape:window-maximized="1"
     inkscape:current-layer="g3571"
     fit-margin-top="0"
     fit-margin-left="0"
     fit-margin-right="0"
     fit-margin-bottom="0" /><g
     id="g3433"
     inkscape:groupmode="layer"
     inkscape:label="ink_ext_XXXXXX"
     transform="matrix(1.25,0,0,-1.25,-148.52189,373.25001)"><g
       id="g3435"
       transform="scale(0.1,0.1)"><g
         id="g3571"
         transform="translate(-7.8149023,-611.93995)"><path
           inkscape:connector-curvature="0"
           id="path3455"
           style="fill:#398b38;fill-opacity:1;fill-rule:evenodd;stroke:none"
           d="m 2389.66,3597.94 c -659.24,0 -1193.67,-531.46 -1193.67,-1187.05 0,-655.59 534.43,-1187.05 1193.67,-1187.05 659.25,0 1193.68,531.46 1193.68,1187.05 0,655.59 -534.43,1187.05 -1193.68,1187.05" /><path
           inkscape:connector-curvature="0"
           id="path3457"
           style="fill:#ffffff;fill-opacity:1;fill-rule:evenodd;stroke:none"
           d="m 2395,3480.62 c -594.55,0 -1076.53,-481.99 -1076.53,-1076.54 0,-594.55 481.98,-1076.52 1076.53,-1076.52 594.56,0 1076.53,481.97 1076.53,1076.52 0,594.55 -481.97,1076.54 -1076.53,1076.54" /><path
           inkscape:connector-curvature="0"
           id="path3465"
           style="fill:url(#linearGradient3459);fill-opacity:1;fill-rule:evenodd;stroke:none"
           d="m 2395,3429.35 c -566.24,0 -1025.27,-459.03 -1025.27,-1025.27 0,-566.24 459.03,-1025.26 1025.27,-1025.26 566.24,0 1025.27,459.02 1025.27,1025.26 0,566.24 -459.03,1025.27 -1025.27,1025.27" /></g></g></g></svg>