<?xml version="1.0" encoding="UTF-8" standalone="no"?>
<!-- Created with Inkscape (http://www.inkscape.org/) -->

<svg
   xmlns:dc="http://purl.org/dc/elements/1.1/"
   xmlns:cc="http://creativecommons.org/ns#"
   xmlns:rdf="http://www.w3.org/1999/02/22-rdf-syntax-ns#"
   xmlns:svg="http://www.w3.org/2000/svg"
   xmlns="http://www.w3.org/2000/svg"
   xmlns:sodipodi="http://sodipodi.sourceforge.net/DTD/sodipodi-0.dtd"
   xmlns:inkscape="http://www.inkscape.org/namespaces/inkscape"
   id="svg2"
   version="1.1"
   inkscape:version="0.91 r13725"
   xml:space="preserve"
   width="949.42908"
   height="296.76251"
   viewBox="0 0 949.42907 296.76251"
   sodipodi:docname="melonwebsite.svg"><metadata
     id="metadata8"><rdf:RDF><cc:Work
         rdf:about=""><dc:format>image/svg+xml</dc:format><dc:type
           rdf:resource="http://purl.org/dc/dcmitype/StillImage" /><dc:title /></cc:Work></rdf:RDF></metadata><defs
     id="defs6"><linearGradient
       x1="0"
       y1="0"
       x2="1"
       y2="0"
       gradientUnits="userSpaceOnUse"
       gradientTransform="matrix(1025.44,1776.11,1776.11,-1025.44,1882.29,1516.03)"
       spreadMethod="pad"
       id="linearGradient36"><stop
         style="stop-opacity:1;stop-color:#c2193c"
         offset="0"
         id="stop38" /><stop
         style="stop-opacity:1;stop-color:#ee2036"
         offset="1"
         id="stop40" /></linearGradient></defs><sodipodi:namedview
     pagecolor="#ffffff"
     bordercolor="#666666"
     borderopacity="1"
     objecttolerance="10"
     gridtolerance="10"
     guidetolerance="10"
     inkscape:pageopacity="0"
     inkscape:pageshadow="2"
     inkscape:window-width="1855"
     inkscape:window-height="1056"
     id="namedview4"
     showgrid="false"
     fit-margin-top="0"
     fit-margin-left="0"
     fit-margin-right="0"
     fit-margin-bottom="0"
     inkscape:zoom="0.74210936"
     inkscape:cx="224.43196"
     inkscape:cy="257.11041"
     inkscape:window-x="65"
     inkscape:window-y="24"
     inkscape:window-maximized="1"
     inkscape:current-layer="g12" /><g
     id="g10"
     inkscape:groupmode="layer"
     inkscape:label="ink_ext_XXXXXX"
     transform="matrix(1.25,0,0,-1.25,-149.49875,449.7425)"><g
       id="g12"
       transform="scale(0.1,0.1)"><g
         id="g3384"
         transform="translate(-43.120347,-48.510418)"><g
           transform="matrix(1.0973071,0,0,1.0973071,3424.0178,1996.0491)"
           id="g3436"><path
             d="m 0,657.66 62.5469,0 0,-75.949 c 30.3828,60.758 97.3981,89.348 151.9061,89.348 50.039,0 97.399,-16.09 131.352,-54.508 12.511,-12.512 28.593,-44.672 31.273,-50.039 7.152,13.398 16.981,32.168 34.852,50.937 31.273,33.063 78.633,53.61 132.246,53.61 49.144,0 96.504,-14.289 129.562,-48.258 42,-41.992 54.508,-93.821 54.508,-178.711 l 0,-267.168 -66.121,0 0,264.5 c 0,50.93 -8.043,96.5 -35.742,127.769 -19.66,25.02 -50.039,40.207 -95.613,40.207 -41.997,0 -83.098,-16.968 -105.438,-50.027 C 401.207,525.41 396.738,498.602 396.738,444.09 l 0,-267.168 -66.125,0 0,267.168 c 1.789,53.621 -6.254,84.89 -25.015,114.379 -22.34,31.281 -56.297,50.043 -105.442,50.929 C 155.48,611.191 117.949,588.859 98.2891,560.262 77.7383,532.559 66.1211,495.93 66.1211,444.988 l 0,-268.066 -66.1211,0 0,480.738"
             style="fill:#131210;fill-opacity:1;fill-rule:nonzero;stroke:none"
             id="path14"
             inkscape:connector-curvature="0" /><path
             d="m 1292.12,451.238 c -4.47,84 -85.78,166.211 -184.97,163.532 -103.65,0 -180.494,-75.95 -186.752,-163.532 l 371.722,0 z M 919.508,398.531 c 3.574,-120.633 106.332,-178.722 187.642,-177.82 74.17,0 134.04,36.629 165.31,99.18 l 68.8,0 c -22.33,-51.821 -56.29,-91.141 -97.39,-117.051 -40.21,-25.918 -87.57,-39.309 -136.72,-39.309 -167.091,0 -253.767,133.129 -253.767,252.867 0,141.18 109.015,254.661 252.877,254.661 67.91,0 130.46,-24.129 176.03,-67.911 55.4,-53.609 82.21,-127.777 75.06,-204.617 l -437.842,0"
             style="fill:#131210;fill-opacity:1;fill-rule:nonzero;stroke:none"
             id="path16"
             inkscape:connector-curvature="0" /><path
             d="m 1486.94,176.922 66.1172,0 0,661.227 -66.1172,0 0,-661.227 z"
             style="fill:#131210;fill-opacity:1;fill-rule:nonzero;stroke:none"
             id="path18"
             inkscape:connector-curvature="0" /><path
             d="m 1752.33,416.398 c 0,-109.019 83.1,-191.218 189.43,-191.218 107.23,0 189.44,82.199 189.44,192.121 0,109.898 -82.21,192.097 -189.44,192.097 -106.33,0 -189.43,-82.199 -189.43,-192.097 l 0,-0.903 z m -65.23,1.782 c 0,134.039 100.08,252.879 254.66,252.879 155.48,0 255.56,-118.84 255.56,-253.758 0,-134.942 -100.08,-252.891 -255.56,-252.891 -154.58,0 -254.66,117.949 -254.66,252.891 l 0,0.879"
             style="fill:#131210;fill-opacity:1;fill-rule:nonzero;stroke:none"
             id="path20"
             inkscape:connector-curvature="0" /><path
             d="m 2332.27,657.66 62.55,0 c 0,-26.808 0,-53.621 -0.89,-85.781 27.7,62.543 92.93,100.961 178.71,99.18 149.22,-1.789 201.94,-103.649 201.94,-220.707 l 0,-273.43 -65.23,0 0,260.019 c 0,103.661 -46.46,174.25 -154.58,172.457 -99.19,-0.886 -156.38,-60.757 -156.38,-160.839 l 0,-271.637 -66.12,0 0,480.738"
             style="fill:#131210;fill-opacity:1;fill-rule:nonzero;stroke:none"
             id="path22"
             inkscape:connector-curvature="0" /><path
             d="m 3360.78,420.871 c 0,79.52 -56.3,169.77 -169.79,169.77 -48.24,0 -90.24,-18.762 -120.62,-50.039 C 3040.87,510.23 3023,467.328 3023,419.07 c 0,-48.238 17.87,-90.242 48.26,-120.621 30.38,-30.379 73.27,-49.14 120.63,-49.14 98.29,0 168.89,75.941 168.89,170.66 l 0,0.902 z m -426.23,242.149 88.45,0 0,-84.879 c 36.64,58.07 99.19,99.168 185.86,99.168 167.1,0 245.73,-139.387 245.73,-260.008 0,-137.621 -99.18,-254.672 -244.83,-254.672 -100.98,0 -160.84,55.402 -182.28,94.711 l 0,-257.34 -92.93,0 0,663.02"
             style="fill:#131210;fill-opacity:1;fill-rule:nonzero;stroke:none"
             id="path24"
             inkscape:connector-curvature="0" /><path
             d="m 3650.31,419.07 c 0,-96.5 73.26,-168.871 166.19,-168.871 92.93,0 166.21,72.371 166.21,169.77 0,97.402 -73.28,169.781 -166.21,169.781 -92.93,0 -166.19,-72.379 -166.19,-169.781 l 0,-0.899 z m -92.93,1.801 c 0,129.559 95.6,256.438 259.12,256.438 163.52,0 259.14,-126.879 259.14,-257.34 0,-130.457 -95.62,-256.438 -259.14,-256.438 -163.52,0 -259.12,125.981 -259.12,256.438 l 0,0.902"
             style="fill:#131210;fill-opacity:1;fill-rule:nonzero;stroke:none"
             id="path26"
             inkscape:connector-curvature="0" /><path
             d="m 4206.13,663.02 87.57,0 0,-71.489 c 27.7,57.188 78.63,84.891 144.75,85.778 l 0,-92.918 -6.25,0 c -87.58,0 -133.14,-48.262 -133.14,-144.762 l 0,-262.707 -92.93,0 0,486.098"
             style="fill:#131210;fill-opacity:1;fill-rule:nonzero;stroke:none"
             id="path28"
             inkscape:connector-curvature="0" /><path
             d="m 4576.97,590.641 -87.58,0 0,72.379 87.58,0 0,175.128 92.93,0 0,-175.128 93.82,0 0,-72.379 -93.82,0 0,-413.719 -92.93,0 0,413.719"
             style="fill:#131210;fill-opacity:1;fill-rule:nonzero;stroke:none"
             id="path30"
             inkscape:connector-curvature="0" /></g><g
           transform="matrix(0.73209854,0,0,0.73209854,546.7892,694.39132)"
           id="g3447"><path
             d="m 2389.66,3597.94 c -659.24,0 -1193.67,-531.46 -1193.67,-1187.05 0,-655.59 534.43,-1187.05 1193.67,-1187.05 659.25,0 1193.68,531.46 1193.68,1187.05 0,655.59 -534.43,1187.05 -1193.68,1187.05"
             style="fill:#398b38;fill-opacity:1;fill-rule:evenodd;stroke:none"
             id="path32"
             inkscape:connector-curvature="0" /><path
             d="m 2395,3480.62 c -594.55,0 -1076.53,-481.99 -1076.53,-1076.54 0,-594.55 481.98,-1076.52 1076.53,-1076.52 594.56,0 1076.53,481.97 1076.53,1076.52 0,594.55 -481.97,1076.54 -1076.53,1076.54"
             style="fill:#ffffff;fill-opacity:1;fill-rule:evenodd;stroke:none"
             id="path34"
             inkscape:connector-curvature="0" /><path
             d="m 2395,3429.35 c -566.24,0 -1025.27,-459.03 -1025.27,-1025.27 0,-566.24 459.03,-1025.26 1025.27,-1025.26 566.24,0 1025.27,459.02 1025.27,1025.26 0,566.24 -459.03,1025.27 -1025.27,1025.27"
             style="fill:url(#linearGradient36);fill-opacity:1;fill-rule:evenodd;stroke:none"
             id="path42"
             inkscape:connector-curvature="0" /><path
             d="m 1329.8,2494.3 c -49.93,0 -90.41,-40.48 -90.41,-90.41 0,-49.93 40.48,-90.41 90.41,-90.41 49.93,0 90.41,40.48 90.41,90.41 0,49.93 -40.48,90.41 -90.41,90.41"
             style="fill:#ffffff;fill-opacity:1;fill-rule:evenodd;stroke:none"
             id="path44"
             inkscape:connector-curvature="0" /><path
             d="m 3447.92,2504.3 c -49.93,0 -90.41,-40.48 -90.41,-90.41 0,-49.93 40.48,-90.41 90.41,-90.41 49.93,0 90.41,40.48 90.41,90.41 0,49.93 -40.48,90.41 -90.41,90.41"
             style="fill:#ffffff;fill-opacity:1;fill-rule:evenodd;stroke:none"
             id="path46"
             inkscape:connector-curvature="0" /><path
             d="m 2417.6,1448.15 c -49.92,0 -90.4,-40.47 -90.4,-90.41 0,-49.93 40.48,-90.41 90.4,-90.41 49.93,0 90.41,40.48 90.41,90.41 0,49.94 -40.48,90.41 -90.41,90.41"
             style="fill:#ffffff;fill-opacity:1;fill-rule:evenodd;stroke:none"
             id="path48"
             inkscape:connector-curvature="0" /><path
             d="m 2866.73,3424.2 c -49.93,0 -90.41,-40.48 -90.41,-90.41 0,-49.93 40.48,-90.4 90.41,-90.4 49.93,0 90.4,40.47 90.4,90.4 0,49.93 -40.47,90.41 -90.4,90.41"
             style="fill:#ffffff;fill-opacity:1;fill-rule:evenodd;stroke:none"
             id="path50"
             inkscape:connector-curvature="0" /><path
             d="m 1756.01,3305.05 c -49.93,0 -90.41,-40.48 -90.41,-90.41 0,-49.93 40.48,-90.41 90.41,-90.41 49.93,0 90.41,40.48 90.41,90.41 0,49.93 -40.48,90.41 -90.41,90.41"
             style="fill:#ffffff;fill-opacity:1;fill-rule:evenodd;stroke:none"
             id="path52"
             inkscape:connector-curvature="0" /><path
             d="m 2461.48,2251.96 c -0.02,-27.68 -22.44,-50.11 -50.12,-50.11 -27.66,0 -50.1,22.43 -50.11,50.11 0.01,27.67 50.12,107.56 50.12,107.56 0,0 50.1,-79.89 50.11,-107.56"
             style="fill:#131210;fill-opacity:1;fill-rule:nonzero;stroke:none"
             id="path54"
             inkscape:connector-curvature="0" /><path
             d="m 2461.48,1894.46 c -0.02,-27.68 -22.44,-50.11 -50.12,-50.11 -27.66,0 -50.1,22.43 -50.11,50.11 0.01,27.67 50.12,107.56 50.12,107.56 0,0 50.1,-79.89 50.11,-107.56"
             style="fill:#131210;fill-opacity:1;fill-rule:nonzero;stroke:none"
             id="path56"
             inkscape:connector-curvature="0" /><path
             d="m 2461.48,1634.46 c -0.02,-27.68 -22.44,-50.11 -50.12,-50.11 -27.66,0 -50.1,22.43 -50.11,50.11 0.01,27.67 50.12,107.56 50.12,107.56 0,0 50.1,-79.89 50.11,-107.56"
             style="fill:#131210;fill-opacity:1;fill-rule:nonzero;stroke:none"
             id="path58"
             inkscape:connector-curvature="0" /><path
             d="m 2077.91,1743.25 c -13.86,-23.96 -44.5,-32.18 -68.47,-18.34 -23.96,13.84 -32.16,44.48 -18.34,68.45 13.85,23.96 97.19,68.1 97.19,68.1 0,0 3.45,-94.24 -10.38,-118.21"
             style="fill:#131210;fill-opacity:1;fill-rule:nonzero;stroke:none"
             id="path60"
             inkscape:connector-curvature="0" /><path
             d="m 2240.41,2020.75 c -13.86,-23.96 -44.5,-32.18 -68.47,-18.34 -23.96,13.84 -32.16,44.48 -18.34,68.45 13.85,23.96 97.19,68.1 97.19,68.1 0,0 3.45,-94.24 -10.38,-118.21"
             style="fill:#131210;fill-opacity:1;fill-rule:nonzero;stroke:none"
             id="path62"
             inkscape:connector-curvature="0" /><path
             d="m 2745.15,1743.25 c 13.85,-23.96 44.49,-32.18 68.47,-18.34 23.95,13.84 32.16,44.48 18.33,68.45 -13.85,23.96 -97.18,68.1 -97.18,68.1 0,0 -3.45,-94.24 10.38,-118.21"
             style="fill:#131210;fill-opacity:1;fill-rule:nonzero;stroke:none"
             id="path64"
             inkscape:connector-curvature="0" /><path
             d="m 2582.65,2020.75 c 13.85,-23.96 44.49,-32.18 68.47,-18.34 23.95,13.84 32.16,44.48 18.33,68.45 -13.85,23.96 -97.18,68.1 -97.18,68.1 0,0 -3.45,-94.24 10.38,-118.21"
             style="fill:#131210;fill-opacity:1;fill-rule:nonzero;stroke:none"
             id="path66"
             inkscape:connector-curvature="0" /><path
             d="m 2461.48,2575.23 c -0.02,27.69 -22.44,50.12 -50.12,50.12 -27.66,0 -50.1,-22.43 -50.11,-50.11 0.01,-27.68 50.12,-107.56 50.12,-107.56 0,0 50.1,79.88 50.11,107.55"
             style="fill:#131210;fill-opacity:1;fill-rule:nonzero;stroke:none"
             id="path68"
             inkscape:connector-curvature="0" /><path
             d="m 2461.48,2932.73 c -0.02,27.69 -22.44,50.12 -50.12,50.12 -27.66,0 -50.1,-22.43 -50.11,-50.11 0.01,-27.68 50.12,-107.56 50.12,-107.56 0,0 50.1,79.88 50.11,107.55"
             style="fill:#131210;fill-opacity:1;fill-rule:nonzero;stroke:none"
             id="path70"
             inkscape:connector-curvature="0" /><path
             d="m 2461.48,3192.73 c -0.02,27.69 -22.44,50.12 -50.12,50.12 -27.66,0 -50.1,-22.43 -50.11,-50.11 0.01,-27.68 50.12,-107.56 50.12,-107.56 0,0 50.1,79.88 50.11,107.55"
             style="fill:#131210;fill-opacity:1;fill-rule:nonzero;stroke:none"
             id="path72"
             inkscape:connector-curvature="0" /><path
             d="m 2077.91,3083.95 c -13.86,23.96 -44.5,32.18 -68.47,18.34 -23.96,-13.84 -32.16,-44.48 -18.34,-68.45 13.85,-23.96 97.19,-68.1 97.19,-68.1 0,0 3.45,94.24 -10.38,118.21"
             style="fill:#131210;fill-opacity:1;fill-rule:nonzero;stroke:none"
             id="path74"
             inkscape:connector-curvature="0" /><path
             d="m 2240.41,2806.45 c -13.86,23.96 -44.5,32.18 -68.47,18.34 -23.96,-13.84 -32.16,-44.48 -18.34,-68.45 13.85,-23.96 97.19,-68.1 97.19,-68.1 0,0 3.45,94.24 -10.38,118.21"
             style="fill:#131210;fill-opacity:1;fill-rule:nonzero;stroke:none"
             id="path76"
             inkscape:connector-curvature="0" /><path
             d="m 2745.15,3083.95 c 13.85,23.96 44.49,32.18 68.47,18.34 23.95,-13.84 32.16,-44.48 18.33,-68.45 -13.85,-23.96 -97.18,-68.1 -97.18,-68.1 0,0 -3.45,94.24 10.38,118.21"
             style="fill:#131210;fill-opacity:1;fill-rule:nonzero;stroke:none"
             id="path78"
             inkscape:connector-curvature="0" /><path
             d="m 2582.65,2806.45 c 13.85,23.96 44.49,32.18 68.47,18.34 23.95,-13.84 32.16,-44.48 18.33,-68.45 -13.85,-23.96 -97.18,-68.1 -97.18,-68.1 0,0 -3.45,94.24 10.38,118.21"
             style="fill:#131210;fill-opacity:1;fill-rule:nonzero;stroke:none"
             id="path80"
             inkscape:connector-curvature="0" /><path
             d="m 2249.89,2363.64 c -27.68,0.02 -50.11,22.45 -50.11,50.13 0,27.66 22.43,50.09 50.11,50.11 27.67,-0.02 107.56,-50.12 107.56,-50.12 0,0 -79.89,-50.11 -107.56,-50.12"
             style="fill:#131210;fill-opacity:1;fill-rule:nonzero;stroke:none"
             id="path82"
             inkscape:connector-curvature="0" /><path
             d="m 1892.39,2363.64 c -27.68,0.02 -50.11,22.45 -50.11,50.13 0,27.66 22.43,50.09 50.11,50.11 27.67,-0.02 107.56,-50.12 107.56,-50.12 0,0 -79.89,-50.11 -107.56,-50.12"
             style="fill:#131210;fill-opacity:1;fill-rule:nonzero;stroke:none"
             id="path84"
             inkscape:connector-curvature="0" /><path
             d="m 1632.39,2363.64 c -27.68,0.02 -50.11,22.45 -50.11,50.13 0,27.66 22.43,50.09 50.11,50.11 27.67,-0.02 107.56,-50.12 107.56,-50.12 0,0 -79.89,-50.11 -107.56,-50.12"
             style="fill:#131210;fill-opacity:1;fill-rule:nonzero;stroke:none"
             id="path86"
             inkscape:connector-curvature="0" /><path
             d="m 1741.18,2747.22 c -23.96,13.85 -32.18,44.49 -18.34,68.47 13.83,23.95 44.48,32.16 68.45,18.33 23.96,-13.84 68.09,-97.18 68.09,-97.18 0,0 -94.23,-3.45 -118.2,10.38"
             style="fill:#131210;fill-opacity:1;fill-rule:nonzero;stroke:none"
             id="path88"
             inkscape:connector-curvature="0" /><path
             d="m 2018.68,2584.72 c -23.96,13.85 -32.18,44.49 -18.34,68.47 13.83,23.95 44.48,32.16 68.45,18.33 23.96,-13.84 68.09,-97.18 68.09,-97.18 0,0 -94.23,-3.45 -118.2,10.38"
             style="fill:#131210;fill-opacity:1;fill-rule:nonzero;stroke:none"
             id="path90"
             inkscape:connector-curvature="0" /><path
             d="m 1741.18,2079.98 c -23.96,-13.85 -32.18,-44.5 -18.34,-68.47 13.83,-23.96 44.48,-32.16 68.45,-18.33 23.96,13.85 68.09,97.18 68.09,97.18 0,0 -94.23,3.44 -118.2,-10.38"
             style="fill:#131210;fill-opacity:1;fill-rule:nonzero;stroke:none"
             id="path92"
             inkscape:connector-curvature="0" /><path
             d="m 2018.68,2242.48 c -23.96,-13.85 -32.18,-44.5 -18.34,-68.47 13.83,-23.96 44.48,-32.16 68.45,-18.33 23.96,13.85 68.09,97.18 68.09,97.18 0,0 -94.23,3.45 -118.2,-10.38"
             style="fill:#131210;fill-opacity:1;fill-rule:nonzero;stroke:none"
             id="path94"
             inkscape:connector-curvature="0" /><path
             d="m 2573.16,2363.64 c 27.68,0.02 50.12,22.45 50.12,50.13 0,27.66 -22.44,50.09 -50.11,50.11 -27.68,-0.02 -107.56,-50.12 -107.56,-50.12 0,0 79.88,-50.11 107.55,-50.12"
             style="fill:#131210;fill-opacity:1;fill-rule:nonzero;stroke:none"
             id="path96"
             inkscape:connector-curvature="0" /><path
             d="m 2930.66,2363.64 c 27.68,0.02 50.12,22.45 50.12,50.13 0,27.66 -22.44,50.09 -50.11,50.11 -27.68,-0.02 -107.56,-50.12 -107.56,-50.12 0,0 79.88,-50.11 107.55,-50.12"
             style="fill:#131210;fill-opacity:1;fill-rule:nonzero;stroke:none"
             id="path98"
             inkscape:connector-curvature="0" /><path
             d="m 3190.66,2363.64 c 27.68,0.02 50.12,22.45 50.12,50.13 0,27.66 -22.44,50.09 -50.11,50.11 -27.68,-0.02 -107.56,-50.12 -107.56,-50.12 0,0 79.88,-50.11 107.55,-50.12"
             style="fill:#131210;fill-opacity:1;fill-rule:nonzero;stroke:none"
             id="path100"
             inkscape:connector-curvature="0" /><path
             d="m 3081.87,2747.22 c 23.96,13.85 32.19,44.49 18.34,68.47 -13.83,23.95 -44.47,32.16 -68.45,18.33 -23.95,-13.84 -68.09,-97.18 -68.09,-97.18 0,0 94.24,-3.45 118.2,10.38"
             style="fill:#131210;fill-opacity:1;fill-rule:nonzero;stroke:none"
             id="path102"
             inkscape:connector-curvature="0" /><path
             d="m 2804.37,2584.72 c 23.96,13.85 32.19,44.49 18.34,68.47 -13.83,23.95 -44.47,32.16 -68.45,18.33 -23.95,-13.84 -68.09,-97.18 -68.09,-97.18 0,0 94.24,-3.45 118.2,10.38"
             style="fill:#131210;fill-opacity:1;fill-rule:nonzero;stroke:none"
             id="path104"
             inkscape:connector-curvature="0" /><path
             d="m 3081.87,2079.98 c 23.96,-13.85 32.19,-44.5 18.34,-68.47 -13.83,-23.96 -44.47,-32.16 -68.45,-18.33 -23.95,13.85 -68.09,97.18 -68.09,97.18 0,0 94.24,3.44 118.2,-10.38"
             style="fill:#131210;fill-opacity:1;fill-rule:nonzero;stroke:none"
             id="path106"
             inkscape:connector-curvature="0" /><path
             d="m 2804.37,2242.48 c 23.96,-13.85 32.19,-44.5 18.34,-68.47 -13.83,-23.96 -44.47,-32.16 -68.45,-18.33 -23.95,13.85 -68.09,97.18 -68.09,97.18 0,0 94.24,3.45 118.2,-10.38"
             style="fill:#131210;fill-opacity:1;fill-rule:nonzero;stroke:none"
             id="path108"
             inkscape:connector-curvature="0" /></g></g></g></g></svg>